<svg width="32" height="32" viewBox="0 0 32 32" fill="none" xmlns="http://www.w3.org/2000/svg">
  <path d="M5.5 21.5L26.5 21.5C27.3284 21.5 28 22.1716 28 23C28 23.8284 27.3284 24.5 26.5 24.5L5.5 24.5C4.67157 24.5 4 23.8284 4 23C4 22.1716 4.67157 21.5 5.5 21.5Z" fill="url(#paint0_linear)"/>
  <path d="M5.5 7.5L26.5 7.5C27.3284 7.5 28 8.17157 28 9C28 9.82843 27.3284 10.5 26.5 10.5L5.5 10.5C4.67157 10.5 4 9.82843 4 9C4 8.17157 4.67157 7.5 5.5 7.5Z" fill="url(#paint1_linear)"/>
  <path d="M5.5 14.5L26.5 14.5C27.3284 14.5 28 15.1716 28 16C28 16.8284 27.3284 17.5 26.5 17.5L5.5 17.5C4.67157 17.5 4 16.8284 4 16C4 15.1716 4.67157 14.5 5.5 14.5Z" fill="url(#paint2_linear)"/>
  <defs>
    <linearGradient id="paint0_linear" x1="4" y1="23" x2="28" y2="23" gradientUnits="userSpaceOnUse">
      <stop stop-color="#9945FF"/>
      <stop offset="1" stop-color="#14F195"/>
    </linearGradient>
    <linearGradient id="paint1_linear" x1="4" y1="9" x2="28" y2="9" gradientUnits="userSpaceOnUse">
      <stop stop-color="#9945FF"/>
      <stop offset="1" stop-color="#14F195"/>
    </linearGradient>
    <linearGradient id="paint2_linear" x1="4" y1="16" x2="28" y2="16" gradientUnits="userSpaceOnUse">
      <stop stop-color="#9945FF"/>
      <stop offset="1" stop-color="#14F195"/>
    </linearGradient>
  </defs>
</svg>